<mxfile host="app.diagrams.net" modified="2024-05-03T00:15:00.321Z" agent="Mozilla/5.0 (Windows NT 10.0; Win64; x64) AppleWebKit/537.36 (KHTML, like Gecko) Chrome/123.0.0.0 Safari/537.36 OPR/109.0.0.0" etag="EBUPPwXYFYil2agnEFlY" version="24.3.0" type="github">
  <diagram name="Page-1" id="5f0bae14-7c28-e335-631c-24af17079c00">
    <mxGraphModel dx="1121" dy="637" grid="1" gridSize="10" guides="1" tooltips="1" connect="1" arrows="1" fold="1" page="1" pageScale="1" pageWidth="1100" pageHeight="850" background="none" math="0" shadow="0">
      <root>
        <mxCell id="0" />
        <mxCell id="1" parent="0" />
        <mxCell id="KdOm_Vm1q64lQA29laMg-1" value="ferramenta de pesquisa para consultar dados armazenados no banco de dados" style="shape=module;align=left;spacingLeft=20;align=center;verticalAlign=top;whiteSpace=wrap;html=1;" vertex="1" parent="1">
          <mxGeometry x="440" y="515" width="170" height="70" as="geometry" />
        </mxCell>
        <mxCell id="KdOm_Vm1q64lQA29laMg-14" value="" style="ellipse;html=1;shape=startState;fillColor=#0537FF;strokeColor=#000000;" vertex="1" parent="1">
          <mxGeometry x="510" y="305" width="30" height="30" as="geometry" />
        </mxCell>
        <mxCell id="KdOm_Vm1q64lQA29laMg-16" value="Pet1" style="shape=module;align=left;spacingLeft=20;align=center;verticalAlign=top;whiteSpace=wrap;html=1;" vertex="1" parent="1">
          <mxGeometry x="700" y="295" width="140" height="65" as="geometry" />
        </mxCell>
        <mxCell id="KdOm_Vm1q64lQA29laMg-18" value="&lt;div&gt;sistema da clínica veterinária&amp;nbsp;&lt;/div&gt;" style="shape=module;align=left;spacingLeft=20;align=center;verticalAlign=top;whiteSpace=wrap;html=1;" vertex="1" parent="1">
          <mxGeometry x="180" y="300" width="140" height="55" as="geometry" />
        </mxCell>
        <mxCell id="KdOm_Vm1q64lQA29laMg-20" value="" style="html=1;verticalAlign=bottom;endArrow=classicThin;dashed=1;endSize=8;curved=0;rounded=0;entryX=1;entryY=0.5;entryDx=0;entryDy=0;endFill=1;" edge="1" parent="1" target="KdOm_Vm1q64lQA29laMg-18">
          <mxGeometry relative="1" as="geometry">
            <mxPoint x="510" y="325" as="sourcePoint" />
            <mxPoint x="480" y="330" as="targetPoint" />
          </mxGeometry>
        </mxCell>
        <mxCell id="KdOm_Vm1q64lQA29laMg-23" value="Dono de pet" style="shape=module;align=left;spacingLeft=20;align=center;verticalAlign=top;whiteSpace=wrap;html=1;" vertex="1" parent="1">
          <mxGeometry x="990" y="470" width="100" height="50" as="geometry" />
        </mxCell>
        <mxCell id="KdOm_Vm1q64lQA29laMg-27" value="" style="line;strokeWidth=1;fillColor=none;align=left;verticalAlign=middle;spacingTop=-1;spacingLeft=3;spacingRight=3;rotatable=0;labelPosition=right;points=[];portConstraint=eastwest;strokeColor=inherit;" vertex="1" parent="1">
          <mxGeometry x="540" y="321" width="170" height="8" as="geometry" />
        </mxCell>
        <mxCell id="KdOm_Vm1q64lQA29laMg-48" value="" style="edgeStyle=orthogonalEdgeStyle;rounded=0;orthogonalLoop=1;jettySize=auto;html=1;dashed=1;endArrow=none;endFill=0;" edge="1" parent="1" source="KdOm_Vm1q64lQA29laMg-28">
          <mxGeometry relative="1" as="geometry">
            <mxPoint x="1000" y="495" as="targetPoint" />
          </mxGeometry>
        </mxCell>
        <mxCell id="KdOm_Vm1q64lQA29laMg-51" value="&amp;lt;&amp;lt;depends&amp;gt;&amp;gt;" style="edgeLabel;html=1;align=center;verticalAlign=middle;resizable=0;points=[];" vertex="1" connectable="0" parent="KdOm_Vm1q64lQA29laMg-48">
          <mxGeometry x="-0.1049" y="-1" relative="1" as="geometry">
            <mxPoint as="offset" />
          </mxGeometry>
        </mxCell>
        <mxCell id="KdOm_Vm1q64lQA29laMg-28" value="transação" style="shape=folder;fontStyle=1;spacingTop=10;tabWidth=40;tabHeight=14;tabPosition=left;html=1;whiteSpace=wrap;" vertex="1" parent="1">
          <mxGeometry x="740" y="460" width="90" height="70" as="geometry" />
        </mxCell>
        <mxCell id="KdOm_Vm1q64lQA29laMg-34" value="" style="line;strokeWidth=3;direction=south;html=1;perimeter=backbonePerimeter;points=[];outlineConnect=0;" vertex="1" parent="1">
          <mxGeometry x="520" y="335" width="10" height="180" as="geometry" />
        </mxCell>
        <mxCell id="KdOm_Vm1q64lQA29laMg-35" value="modo de pagamentos" style="html=1;whiteSpace=wrap;" vertex="1" parent="1">
          <mxGeometry x="740" y="650" width="110" height="50" as="geometry" />
        </mxCell>
        <mxCell id="KdOm_Vm1q64lQA29laMg-37" value="&lt;div&gt;&lt;br&gt;&lt;/div&gt;&lt;div&gt;&lt;br&gt;&lt;/div&gt;" style="html=1;verticalAlign=bottom;endArrow=none;dashed=1;endSize=8;curved=0;rounded=0;exitX=0.5;exitY=0;exitDx=0;exitDy=0;entryX=0.6;entryY=1.034;entryDx=0;entryDy=0;entryPerimeter=0;strokeColor=default;endFill=0;" edge="1" parent="1" source="KdOm_Vm1q64lQA29laMg-35" target="KdOm_Vm1q64lQA29laMg-28">
          <mxGeometry relative="1" as="geometry">
            <mxPoint x="825" y="640" as="sourcePoint" />
            <mxPoint x="790" y="540" as="targetPoint" />
          </mxGeometry>
        </mxCell>
        <mxCell id="KdOm_Vm1q64lQA29laMg-41" value="" style="html=1;verticalAlign=bottom;endArrow=open;dashed=1;endSize=8;curved=0;rounded=0;exitX=0.538;exitY=0.177;exitDx=0;exitDy=0;exitPerimeter=0;entryX=0.614;entryY=0.983;entryDx=0;entryDy=0;entryPerimeter=0;" edge="1" parent="1" source="KdOm_Vm1q64lQA29laMg-28" target="KdOm_Vm1q64lQA29laMg-16">
          <mxGeometry x="-1" y="-91" relative="1" as="geometry">
            <mxPoint x="820" y="400" as="sourcePoint" />
            <mxPoint x="740" y="400" as="targetPoint" />
            <mxPoint x="90" y="81" as="offset" />
          </mxGeometry>
        </mxCell>
        <mxCell id="KdOm_Vm1q64lQA29laMg-42" value="&amp;lt;&amp;lt;depends&amp;gt;&amp;gt;" style="edgeLabel;html=1;align=center;verticalAlign=middle;resizable=0;points=[];" vertex="1" connectable="0" parent="KdOm_Vm1q64lQA29laMg-41">
          <mxGeometry x="0.0149" y="5" relative="1" as="geometry">
            <mxPoint as="offset" />
          </mxGeometry>
        </mxCell>
        <mxCell id="KdOm_Vm1q64lQA29laMg-43" value="" style="html=1;verticalAlign=bottom;endArrow=none;dashed=1;endSize=8;curved=0;rounded=0;endFill=0;entryX=1;entryY=0.5;entryDx=0;entryDy=0;" edge="1" parent="1">
          <mxGeometry relative="1" as="geometry">
            <mxPoint x="1050" y="676" as="sourcePoint" />
            <mxPoint x="850" y="676" as="targetPoint" />
            <Array as="points" />
          </mxGeometry>
        </mxCell>
        <mxCell id="KdOm_Vm1q64lQA29laMg-44" value="" style="html=1;verticalAlign=bottom;endArrow=none;dashed=1;endSize=8;curved=0;rounded=0;endFill=0;entryX=0.592;entryY=1.096;entryDx=0;entryDy=0;entryPerimeter=0;" edge="1" parent="1" target="KdOm_Vm1q64lQA29laMg-23">
          <mxGeometry relative="1" as="geometry">
            <mxPoint x="1050" y="670" as="sourcePoint" />
            <mxPoint x="1050" y="510" as="targetPoint" />
            <Array as="points">
              <mxPoint x="1050" y="680" />
            </Array>
          </mxGeometry>
        </mxCell>
        <mxCell id="KdOm_Vm1q64lQA29laMg-54" value="" style="html=1;verticalAlign=bottom;endArrow=none;dashed=1;endSize=8;curved=0;rounded=0;entryX=0;entryY=1;entryDx=10;entryDy=0;entryPerimeter=0;endFill=0;" edge="1" parent="1" target="KdOm_Vm1q64lQA29laMg-16">
          <mxGeometry relative="1" as="geometry">
            <mxPoint x="710" y="630" as="sourcePoint" />
            <mxPoint x="500" y="350" as="targetPoint" />
          </mxGeometry>
        </mxCell>
        <mxCell id="KdOm_Vm1q64lQA29laMg-56" value="" style="html=1;verticalAlign=bottom;endArrow=none;dashed=1;endSize=8;curved=0;rounded=0;endFill=0;" edge="1" parent="1">
          <mxGeometry relative="1" as="geometry">
            <mxPoint x="710" y="630" as="sourcePoint" />
            <mxPoint x="260" y="630" as="targetPoint" />
          </mxGeometry>
        </mxCell>
        <mxCell id="KdOm_Vm1q64lQA29laMg-57" value="" style="html=1;verticalAlign=bottom;endArrow=classic;dashed=1;endSize=8;curved=0;rounded=0;entryX=0.572;entryY=0.996;entryDx=0;entryDy=0;endFill=1;entryPerimeter=0;" edge="1" parent="1" target="KdOm_Vm1q64lQA29laMg-18">
          <mxGeometry relative="1" as="geometry">
            <mxPoint x="260" y="630" as="sourcePoint" />
            <mxPoint x="180" y="590" as="targetPoint" />
          </mxGeometry>
        </mxCell>
        <mxCell id="KdOm_Vm1q64lQA29laMg-58" value="" style="html=1;verticalAlign=bottom;endArrow=none;dashed=1;endSize=8;curved=0;rounded=0;endFill=0;" edge="1" parent="1">
          <mxGeometry x="-1" y="334" relative="1" as="geometry">
            <mxPoint x="1040" y="160" as="sourcePoint" />
            <mxPoint x="270" y="160" as="targetPoint" />
            <mxPoint x="330" y="-284" as="offset" />
          </mxGeometry>
        </mxCell>
        <mxCell id="KdOm_Vm1q64lQA29laMg-59" value="" style="html=1;verticalAlign=bottom;endArrow=none;dashed=1;endSize=8;curved=0;rounded=0;endFill=0;" edge="1" parent="1">
          <mxGeometry relative="1" as="geometry">
            <mxPoint x="1040" y="480" as="sourcePoint" />
            <mxPoint x="1040" y="160" as="targetPoint" />
          </mxGeometry>
        </mxCell>
        <mxCell id="KdOm_Vm1q64lQA29laMg-60" value="" style="html=1;verticalAlign=bottom;endArrow=classic;dashed=1;endSize=8;curved=0;rounded=0;endFill=1;entryX=0.617;entryY=-0.071;entryDx=0;entryDy=0;entryPerimeter=0;" edge="1" parent="1" target="KdOm_Vm1q64lQA29laMg-18">
          <mxGeometry relative="1" as="geometry">
            <mxPoint x="270" y="160" as="sourcePoint" />
            <mxPoint x="270" y="290" as="targetPoint" />
          </mxGeometry>
        </mxCell>
      </root>
    </mxGraphModel>
  </diagram>
</mxfile>
